<svg width="60" height="60" viewBox="0 0 60 60" fill="none" xmlns="http://www.w3.org/2000/svg">
<g clip-path="url(#clip0_1368_2211)">
<rect width="60" height="60" rx="30" fill="#5282FF" style="fill:#5282FF;fill:color(display-p3 0.3208 0.5110 1.0000);fill-opacity:1;"/>
<path d="M38.4345 15C37.9168 15 37.497 15.4197 37.497 15.9375V16.875H22.5C18.3578 16.875 15 20.2329 15 24.3751C15 28.5172 18.3579 31.875 22.5 31.875H25.947L29.3371 35.2651C29.7032 35.6312 30.2968 35.6312 30.6629 35.2651L34.053 31.875H37.4999C39.571 31.875 41.2499 33.554 41.2499 35.625C41.2499 37.6961 39.5709 39.375 37.4999 39.375H22.0033C21.355 38.2521 20.1417 37.4963 18.7518 37.4963C16.6798 37.4963 15 39.1761 15 41.2482C15 43.3202 16.6798 45 18.7518 45C20.1402 45 21.3524 44.2459 22.0012 43.125H37.4999C41.642 43.125 44.9999 39.7672 44.9999 35.6251C44.9999 31.4829 41.6421 28.125 37.4999 28.125H34.0528L30.6629 24.7351C30.2968 24.369 29.7032 24.369 29.3371 24.7351L25.9472 28.125H22.5C20.4289 28.125 18.75 26.4461 18.75 24.375C18.75 22.304 20.4289 20.625 22.5 20.625H37.497V21.5654C37.497 22.0832 37.9168 22.5029 38.4345 22.5029H44.0624C44.5802 22.5029 44.9999 22.0832 44.9999 21.5654V15.9375C44.9999 15.4197 44.5802 15 44.0624 15H38.4345Z" fill="white" style="fill:white;fill-opacity:1;"/>
</g>
<defs>
<clipPath id="clip0_1368_2211">
<rect width="60" height="60" fill="white" style="fill:white;fill-opacity:1;"/>
</clipPath>
</defs>
</svg>
