<svg width="60" height="60" viewBox="0 0 60 60" fill="none" xmlns="http://www.w3.org/2000/svg">
<g clip-path="url(#clip0_1369_2218)">
<rect width="60" height="60" rx="30" fill="#5282FF" style="fill:#5282FF;fill:color(display-p3 0.3208 0.5110 1.0000);fill-opacity:1;"/>
<path d="M43.125 30C44.0625 30 45 30.75 45 31.875V43.125C45 44.25 44.25 45 43.125 45H16.875C15.75 45 15 44.25 15 43.125V31.875C15 30.75 15.75 30 16.875 30H43.125ZM26.25 35.625C25.125 35.625 24.375 36.375 24.375 37.5C24.375 38.625 25.125 39.375 26.25 39.375H33.75C34.6875 39.375 35.625 38.4375 35.625 37.5C35.625 36.375 34.875 35.625 33.75 35.625H26.25ZM41.25 22.5C42.375 22.5 43.125 23.25 43.125 24.375V28.125H16.875V24.375C16.875 23.25 17.625 22.5 18.75 22.5H41.25ZM39.375 15C40.5 15 41.25 15.75 41.25 16.875V20.625H18.75V16.875C18.75 15.75 19.5 15 20.625 15H39.375Z" fill="white" style="fill:white;fill-opacity:1;"/>
</g>
<defs>
<clipPath id="clip0_1369_2218">
<rect width="60" height="60" fill="white" style="fill:white;fill-opacity:1;"/>
</clipPath>
</defs>
</svg>
