<svg width="60" height="60" viewBox="0 0 60 60" fill="none" xmlns="http://www.w3.org/2000/svg">
<g clip-path="url(#clip0_1436_2317)">
<rect width="60" height="60" rx="30" fill="#5282FF" style="fill:#5282FF;fill:color(display-p3 0.3208 0.5110 1.0000);fill-opacity:1;"/>
<path d="M34.6875 15C29.0625 15 24.375 19.6875 24.375 25.3125C24.375 26.625 24.5625 27.9375 25.125 29.25L15 39.375V45H20.625L30.75 34.875C32.0625 35.4375 33.375 35.625 34.6875 35.625C40.3125 35.625 45 30.9375 45 25.3125C45 19.6875 40.3125 15 34.6875 15ZM37.5 26.25C35.4375 26.25 33.75 24.5625 33.75 22.5C33.75 20.4375 35.4375 18.75 37.5 18.75C39.5625 18.75 41.25 20.4375 41.25 22.5C41.25 24.5625 39.5625 26.25 37.5 26.25Z" fill="white" style="fill:white;fill-opacity:1;"/>
</g>
<defs>
<clipPath id="clip0_1436_2317">
<rect width="60" height="60" fill="white" style="fill:white;fill-opacity:1;"/>
</clipPath>
</defs>
</svg>
