<svg width="60" height="60" viewBox="0 0 60 60" fill="none" xmlns="http://www.w3.org/2000/svg">
<g clip-path="url(#clip0_1420_2311)">
<rect width="60" height="60" rx="30" fill="#5282FF" style="fill:#5282FF;fill:color(display-p3 0.3208 0.5110 1.0000);fill-opacity:1;"/>
<path fill-rule="evenodd" clip-rule="evenodd" d="M23.6538 19.0385C23.6538 21.2688 21.8458 23.0769 19.6154 23.0769C17.385 23.0769 15.5769 21.2688 15.5769 19.0385C15.5769 16.8081 17.385 15 19.6154 15C21.8458 15 23.6538 16.8081 23.6538 19.0385ZM24.2308 30C24.2308 32.549 22.1644 34.6154 19.6154 34.6154C17.0664 34.6154 15 32.549 15 30C15 27.451 17.0664 25.3846 19.6154 25.3846C22.1644 25.3846 24.2308 27.451 24.2308 30ZM23.6538 40.9615C23.6538 43.1919 21.8458 45 19.6154 45C17.385 45 15.5769 43.1919 15.5769 40.9615C15.5769 38.7312 17.385 36.9231 19.6154 36.9231C21.8458 36.9231 23.6538 38.7312 23.6538 40.9615ZM29.4231 23.5457C31.0959 23.5457 32.4519 22.1896 32.4519 20.5168C32.4519 18.844 31.0959 17.488 29.4231 17.488C27.7503 17.488 26.3942 18.844 26.3942 20.5168C26.3942 22.1896 27.7503 23.5457 29.4231 23.5457ZM29.4231 33.4604C31.3348 33.4604 32.8846 31.9106 32.8846 29.9989C32.8846 28.0871 31.3348 26.5373 29.4231 26.5373C27.5113 26.5373 25.9615 28.0871 25.9615 29.9989C25.9615 31.9106 27.5113 33.4604 29.4231 33.4604ZM37.2115 24.0144C38.4064 24.0144 39.375 23.0458 39.375 21.851C39.375 20.6561 38.4064 19.6875 37.2115 19.6875C36.0167 19.6875 35.0481 20.6561 35.0481 21.851C35.0481 23.0458 36.0167 24.0144 37.2115 24.0144ZM43.2692 24.4832C43.9861 24.4832 44.5673 23.902 44.5673 23.1851C44.5673 22.4682 43.9861 21.887 43.2692 21.887C42.5523 21.887 41.9712 22.4682 41.9712 23.1851C41.9712 23.902 42.5523 24.4832 43.2692 24.4832ZM29.4231 42.512C31.0959 42.512 32.4519 41.156 32.4519 39.4832C32.4519 37.8104 31.0959 36.4543 29.4231 36.4543C27.7503 36.4543 26.3942 37.8104 26.3942 39.4832C26.3942 41.156 27.7503 42.512 29.4231 42.512ZM37.2115 40.3125C38.4064 40.3125 39.375 39.3439 39.375 38.149C39.375 36.9542 38.4064 35.9856 37.2115 35.9856C36.0167 35.9856 35.0481 36.9542 35.0481 38.149C35.0481 39.3439 36.0167 40.3125 37.2115 40.3125ZM43.2692 38.113C43.9861 38.113 44.5673 37.5318 44.5673 36.8149C44.5673 36.098 43.9861 35.5168 43.2692 35.5168C42.5523 35.5168 41.9712 36.098 41.9712 36.8149C41.9712 37.5318 42.5523 38.113 43.2692 38.113ZM37.2115 32.595C38.6454 32.595 39.8077 31.4327 39.8077 29.9989C39.8077 28.5651 38.6454 27.4027 37.2115 27.4027C35.7777 27.4027 34.6154 28.5651 34.6154 29.9989C34.6154 31.4327 35.7777 32.595 37.2115 32.595ZM43.2692 31.7296C44.2251 31.7296 45 30.9548 45 29.9989C45 29.043 44.2251 28.2681 43.2692 28.2681C42.3134 28.2681 41.5385 29.043 41.5385 29.9989C41.5385 30.9548 42.3134 31.7296 43.2692 31.7296Z" fill="white" style="fill:white;fill-opacity:1;"/>
</g>
<defs>
<clipPath id="clip0_1420_2311">
<rect width="60" height="60" fill="white" style="fill:white;fill-opacity:1;"/>
</clipPath>
</defs>
</svg>
