<svg width="60" height="60" viewBox="0 0 60 60" fill="none" xmlns="http://www.w3.org/2000/svg">
<g clip-path="url(#clip0_1366_2209)">
<rect width="60" height="60" rx="30" fill="#5282FF" style="fill:#5282FF;fill:color(display-p3 0.3208 0.5110 1.0000);fill-opacity:1;"/>
<path fill-rule="evenodd" clip-rule="evenodd" d="M15 24.7266C15 23.3395 15.7657 22.0656 16.9907 21.4149L28.2407 15.4383C29.3408 14.8539 30.6592 14.8539 31.7593 15.4383L43.0093 21.4149C44.2343 22.0656 45 23.3395 45 24.7266V39.3474C45 41.4185 43.3211 43.0974 41.25 43.0974H18.75C16.6789 43.0974 15 41.4185 15 39.3474V24.7266ZM20.625 28.0969C20.625 27.0614 21.4645 26.2219 22.5 26.2219H37.5C38.5355 26.2219 39.375 27.0614 39.375 28.0969C39.375 29.1325 38.5355 29.9719 37.5 29.9719H22.5C21.4645 29.9719 20.625 29.1325 20.625 28.0969ZM22.5 33.7219C21.4645 33.7219 20.625 34.5614 20.625 35.5969C20.625 36.6325 21.4645 37.4719 22.5 37.4719H30C31.0355 37.4719 31.875 36.6325 31.875 35.5969C31.875 34.5614 31.0355 33.7219 30 33.7219H22.5Z" fill="white" style="fill:white;fill-opacity:1;"/>
</g>
<defs>
<clipPath id="clip0_1366_2209">
<rect width="60" height="60" fill="white" style="fill:white;fill-opacity:1;"/>
</clipPath>
</defs>
</svg>
