<svg width="60" height="60" viewBox="0 0 60 60" fill="none" xmlns="http://www.w3.org/2000/svg">
<g clip-path="url(#clip0_1427_2313)">
<rect width="60" height="60" rx="30" fill="#5282FF" style="fill:#5282FF;fill:color(display-p3 0.3208 0.5110 1.0000);fill-opacity:1;"/>
<path fill-rule="evenodd" clip-rule="evenodd" d="M20.625 15.9375H39.375C41.9638 15.9375 44.0625 18.0362 44.0625 20.625V39.375C44.0625 41.9638 41.9638 44.0625 39.375 44.0625H20.625C18.0362 44.0625 15.9375 41.9638 15.9375 39.375V20.625C15.9375 18.0362 18.0362 15.9375 20.625 15.9375ZM20.7192 23.3709C19.9869 22.6386 19.9869 21.4514 20.7192 20.7192C21.4514 19.987 22.6386 19.987 23.3708 20.7192L26.19 23.5384C27.3066 22.8786 28.6091 22.5 30 22.5C31.3909 22.5 32.6933 22.8786 33.8099 23.5384L36.6291 20.7192C37.3613 19.987 38.5485 19.987 39.2807 20.7192C40.0129 21.4514 40.0129 22.6386 39.2807 23.3709L36.4615 26.19C37.1214 27.3066 37.5 28.6091 37.5 30C37.5 31.3909 37.1214 32.6934 36.4615 33.81L39.2807 36.6291C40.0129 37.3614 40.0129 38.5485 39.2807 39.2807C38.5485 40.0131 37.3613 40.0131 36.6291 39.2807L33.8099 36.4616C32.6933 37.1214 31.3909 37.5 30 37.5C28.6091 37.5 27.3066 37.1214 26.19 36.4616L23.3708 39.2807C22.6386 40.0131 21.4514 40.0131 20.7192 39.2807C19.9869 38.5485 19.9869 37.3614 20.7192 36.6291L23.5384 33.8099C22.8786 32.6933 22.5 31.3909 22.5 30C22.5 28.6091 22.8786 27.3067 23.5384 26.1901L20.7192 23.3709ZM30 25.3125C27.4112 25.3125 25.3125 27.4112 25.3125 30C25.3125 32.5888 27.4112 34.6875 30 34.6875C32.5888 34.6875 34.6875 32.5888 34.6875 30C34.6875 27.4112 32.5888 25.3125 30 25.3125ZM30 31.875C31.0355 31.875 31.875 31.0355 31.875 30C31.875 28.9645 31.0355 28.125 30 28.125C28.9645 28.125 28.125 28.9645 28.125 30C28.125 31.0355 28.9645 31.875 30 31.875Z" fill="white" style="fill:white;fill-opacity:1;"/>
</g>
<defs>
<clipPath id="clip0_1427_2313">
<rect width="60" height="60" fill="white" style="fill:white;fill-opacity:1;"/>
</clipPath>
</defs>
</svg>
