<svg width="1400" height="636" viewBox="0 0 1400 636" fill="none" xmlns="http://www.w3.org/2000/svg">
<rect width="1400" height="636" fill="white" style="fill:white;fill-opacity:1;"/>
<path d="M706.797 303.57H734.008V318.969H706.797V346.039H691.398V318.969H664.188V303.57H691.398V276.148H706.797V303.57Z" fill="black" style="fill:black;fill-opacity:1;"/>
<path fill-rule="evenodd" clip-rule="evenodd" d="M1106 248C1094.82 248 1085.42 240.351 1082.76 230H1055.25C1049.38 230 1044.38 234.241 1043.41 240.027L1042.43 245.946C1041.49 251.565 1038.65 256.455 1034.63 260C1038.65 263.545 1041.49 268.435 1042.43 274.054L1043.41 279.973C1044.38 285.759 1049.38 290 1055.25 290H1058.76C1061.42 279.649 1070.82 272 1082 272C1095.26 272 1106 282.745 1106 296C1106 309.255 1095.26 320 1082 320C1070.82 320 1061.42 312.351 1058.76 302H1055.25C1043.52 302 1033.5 293.518 1031.57 281.946L1030.59 276.027C1029.62 270.241 1024.62 266 1018.75 266H1009.24C1006.58 276.351 997.183 284 986 284C974.817 284 965.42 276.351 962.756 266H949.244C946.58 276.351 937.183 284 926 284C912.745 284 902 273.255 902 260C902 246.745 912.745 236 926 236C937.183 236 946.58 243.649 949.244 254H962.756C965.42 243.649 974.817 236 986 236C997.183 236 1006.58 243.649 1009.24 254H1018.75C1024.62 254 1029.62 249.759 1030.59 243.973L1031.57 238.054C1033.5 226.482 1043.52 218 1055.25 218H1082.76C1085.42 207.649 1094.82 200 1106 200C1119.26 200 1130 210.745 1130 224C1130 237.255 1119.26 248 1106 248ZM1106 236C1112.63 236 1118 230.627 1118 224C1118 217.373 1112.63 212 1106 212C1099.37 212 1094 217.373 1094 224C1094 230.627 1099.37 236 1106 236ZM926 272C932.627 272 938 266.627 938 260C938 253.373 932.627 248 926 248C919.373 248 914 253.373 914 260C914 266.627 919.373 272 926 272ZM998 260C998 266.627 992.627 272 986 272C979.373 272 974 266.627 974 260C974 253.373 979.373 248 986 248C992.627 248 998 253.373 998 260ZM1094 296C1094 302.627 1088.63 308 1082 308C1075.37 308 1070 302.627 1070 296C1070 289.373 1075.37 284 1082 284C1088.63 284 1094 289.373 1094 296Z" fill="#EA4B71" style="fill:#EA4B71;fill:color(display-p3 0.9176 0.2941 0.4431);fill-opacity:1;"/>
<path fill-rule="evenodd" clip-rule="evenodd" d="M1027.76 391.927V391.356C1031.94 389.259 1036.13 385.637 1036.13 378.489C1036.13 368.195 1027.66 362 1015.96 362C1003.97 362 995.404 368.576 995.404 378.679C995.404 385.542 999.4 389.259 1003.78 391.356V391.927C998.925 393.643 993.12 398.79 993.12 407.368C993.12 417.756 1001.68 425 1015.86 425C1030.04 425 1038.32 417.756 1038.32 407.368C1038.32 398.79 1032.61 393.738 1027.76 391.927ZM1015.86 370.769C1020.62 370.769 1024.14 373.818 1024.14 378.965C1024.14 384.112 1020.53 387.162 1015.86 387.162C1011.2 387.162 1007.3 384.112 1007.3 378.965C1007.3 373.723 1011.01 370.769 1015.86 370.769ZM1015.86 415.85C1010.34 415.85 1005.87 412.324 1005.87 406.319C1005.87 400.887 1009.58 396.788 1015.77 396.788C1021.86 396.788 1025.57 400.791 1025.57 406.51C1025.57 412.324 1021.29 415.85 1015.86 415.85Z" fill="#101330" style="fill:#101330;fill:color(display-p3 0.0627 0.0745 0.1882);fill-opacity:1;"/>
<path d="M1053 424.047H1065.18V398.218C1065.18 389.735 1070.32 386.018 1076.12 386.018C1081.83 386.018 1086.3 389.831 1086.3 397.646V424.047H1098.48V395.168C1098.48 382.682 1091.25 375.439 1079.93 375.439C1072.79 375.439 1068.8 378.298 1065.94 382.015H1065.18L1064.13 376.392H1053V424.047Z" fill="#101330" style="fill:#101330;fill:color(display-p3 0.0627 0.0745 0.1882);fill-opacity:1;"/>
<path d="M945.18 424.047H933V376.392H944.133L945.18 382.015H945.941C948.796 378.298 952.793 375.439 959.93 375.439C971.253 375.439 978.485 382.682 978.485 395.168V424.047H966.305V397.646C966.305 389.831 961.833 386.018 956.123 386.018C950.319 386.018 945.18 389.735 945.18 398.218V424.047Z" fill="#101330" style="fill:#101330;fill:color(display-p3 0.0627 0.0745 0.1882);fill-opacity:1;"/>
<g clip-path="url(#clip0_1393_2226)">
<path d="M297.667 306C297.667 258.872 335.872 220.667 383 220.667V220.667C430.129 220.667 468.334 258.872 468.334 306V306C468.334 353.128 430.129 391.333 383 391.333V391.333C335.872 391.333 297.667 353.128 297.667 306V306Z" fill="white" style="fill:white;fill-opacity:1;"/>
<path d="M383 434C351.192 433.231 338.601 411.969 334.757 391.435C332.671 380.271 333.586 361.709 334.757 355.084C336.661 344.287 339.735 328.767 343.139 310.758C348.008 284.953 360.928 270.276 388.82 265.041L434.442 256.329C435.65 249.557 437.941 231.623 435.854 220.569C431.974 199.815 415.979 178.329 383.512 178C312.796 178 255 235.283 255 306C255 376.717 312.283 434 383 434Z" fill="url(#paint0_linear_1393_2226)" style=""/>
<path d="M382.999 178C414.807 178.769 430.546 200.071 434.39 220.606C436.476 231.77 432.413 250.291 431.242 256.916C429.338 267.713 426.264 283.233 422.86 301.242C417.991 327.047 405.071 341.724 377.179 346.959L334.724 355.294C333.516 362.066 329.527 380.367 331.613 391.421C335.493 412.175 350.02 433.671 382.487 434C453.203 434 510.999 376.717 510.999 306C510.999 235.283 453.716 178 382.999 178Z" fill="url(#paint1_linear_1393_2226)" style=""/>
</g>
<defs>
<linearGradient id="paint0_linear_1393_2226" x1="254.999" y1="434" x2="456.455" y2="192.348" gradientUnits="userSpaceOnUse">
<stop stop-color="#D2DFFF" style="stop-color:#D2DFFF;stop-color:color(display-p3 0.8250 0.8736 1.0000);stop-opacity:1;"/>
<stop offset="1" stop-color="#4E7FFF" style="stop-color:#4E7FFF;stop-color:color(display-p3 0.3042 0.4972 1.0000);stop-opacity:1;"/>
</linearGradient>
<linearGradient id="paint1_linear_1393_2226" x1="510.999" y1="178" x2="306.389" y2="412.51" gradientUnits="userSpaceOnUse">
<stop stop-color="#D2DFFF" style="stop-color:#D2DFFF;stop-color:color(display-p3 0.8250 0.8736 1.0000);stop-opacity:1;"/>
<stop offset="1" stop-color="#4E7FFF" style="stop-color:#4E7FFF;stop-color:color(display-p3 0.3042 0.4972 1.0000);stop-opacity:1;"/>
</linearGradient>
<clipPath id="clip0_1393_2226">
<rect width="256" height="256" fill="white" style="fill:white;fill-opacity:1;" transform="translate(255 178)"/>
</clipPath>
</defs>
</svg>
