<svg width="60" height="60" viewBox="0 0 60 60" fill="none" xmlns="http://www.w3.org/2000/svg">
<g clip-path="url(#clip0_1418_2310)">
<rect width="60" height="60" rx="30" fill="#5282FF" style="fill:#5282FF;fill:color(display-p3 0.3208 0.5110 1.0000);fill-opacity:1;"/>
<path fill-rule="evenodd" clip-rule="evenodd" d="M16.8731 42.8588V39.6338C16.8731 39.4838 16.9931 39.3844 17.1374 39.3844H35.3606C35.505 39.3844 35.625 39.4838 35.625 39.6338V42.8588C35.625 43.0088 35.505 43.1344 35.3606 43.1344H17.1374C17.066 43.1324 16.9982 43.1024 16.9487 43.0508C16.8992 42.9992 16.8721 42.9302 16.8731 42.8588V42.8588ZM16.8749 35.3588V32.1338C16.8749 32.0081 16.9949 31.8844 17.1393 31.8844H42.8625C43.0068 31.8844 43.1268 32.0081 43.1268 32.1338V35.3588C43.1268 35.5088 43.0068 35.6344 42.8625 35.6344H17.1393C17.0679 35.6324 17.0001 35.6024 16.9506 35.5508C16.9011 35.4992 16.8739 35.4302 16.8749 35.3588V35.3588ZM16.8731 27.8588V24.6338C16.8731 24.5081 16.9931 24.3825 17.1356 24.3825H39.1125C39.255 24.3825 39.375 24.5081 39.375 24.6338V27.8588C39.375 28.0088 39.255 28.1325 39.1125 28.1325H17.1356C17.0648 28.1301 16.9977 28.1001 16.9487 28.049C16.8997 27.9978 16.8725 27.9296 16.8731 27.8588V27.8588ZM16.8749 20.3588V17.1338C16.8749 17.0081 16.9949 16.8825 17.1393 16.8825H42.8568C43.0031 16.8825 43.1231 17.0081 43.1231 17.1319V20.3569C43.1231 20.5069 43.0031 20.6325 42.8568 20.6325H17.1393C17.0679 20.6305 17.0001 20.6005 16.9506 20.5489C16.9011 20.4973 16.8739 20.4284 16.8749 20.3569V20.3588Z" fill="white" style="fill:white;fill-opacity:1;"/>
</g>
<defs>
<clipPath id="clip0_1418_2310">
<rect width="60" height="60" fill="white" style="fill:white;fill-opacity:1;"/>
</clipPath>
</defs>
</svg>
