<svg width="60" height="60" viewBox="0 0 60 60" fill="none" xmlns="http://www.w3.org/2000/svg">
<g clip-path="url(#clip0_1407_2299)">
<rect width="60" height="60" rx="30" fill="#5282FF" style="fill:#5282FF;fill:color(display-p3 0.3208 0.5110 1.0000);fill-opacity:1;"/>
<path fill-rule="evenodd" clip-rule="evenodd" d="M45 17.8302C45 19.3933 42.4816 20.6604 39.375 20.6604C36.2684 20.6604 33.75 19.3933 33.75 17.8302C33.75 16.2671 36.2684 15 39.375 15C42.4816 15 45 16.2671 45 17.8302ZM24.375 36.8868V41.9811C24.375 43.6792 26.8125 45 30 45C33.1875 45 35.625 43.6792 35.625 41.9811V36.8868C34.125 38.2076 32.0625 38.7736 30 38.7736C27.9375 38.7736 25.875 38.2076 24.375 36.8868ZM33.75 20.6604V19.9057C35.25 21.2264 37.3125 21.7925 39.375 21.7925C41.4375 21.7925 43.5 21.2264 45 19.9057V25.1887C45 26.6981 42.75 28.0189 39.75 28.2076L35.1087 33.6253C35.4401 33.986 35.625 34.3878 35.625 34.8113C35.625 36.3744 33.1066 37.6415 30 37.6415C26.8934 37.6415 24.375 36.3744 24.375 34.8113C24.375 34.424 24.5296 34.0548 24.8096 33.7186L20.25 28.3962C17.4375 28.2076 15 26.8868 15 25.3774V19.9057C16.5 21.2264 18.5625 21.7925 20.625 21.7925C22.6875 21.7925 24.75 21.2264 26.25 19.9057V20.6604L33.75 20.6604ZM29.9777 31.9811C29.4891 31.9821 29.0151 32.0144 28.5634 32.0743C27.841 32.1652 27.1061 32.3229 26.4375 32.5472L22.5 28.0189C24.5625 27.6415 26.25 26.5094 26.25 25.1887V22.5472H33.75V25.1887C33.75 26.5094 35.0625 27.6415 37.125 28.0189L33.2329 32.495C32.3239 32.1732 31.217 31.9835 30.0223 31.9811L30 31.9811L29.9777 31.9811ZM26.25 17.8302C26.25 19.3933 23.7316 20.6604 20.625 20.6604C17.5184 20.6604 15 19.3933 15 17.8302C15 16.2671 17.5184 15 20.625 15C23.7316 15 26.25 16.2671 26.25 17.8302Z" fill="white" style="fill:white;fill-opacity:1;"/>
</g>
<defs>
<clipPath id="clip0_1407_2299">
<rect width="60" height="60" fill="white" style="fill:white;fill-opacity:1;"/>
</clipPath>
</defs>
</svg>
