<svg width="60" height="60" viewBox="0 0 60 60" fill="none" xmlns="http://www.w3.org/2000/svg">
<rect width="60" height="60" rx="30" fill="#5282FF"/>
<path d="M20 18H40C41.1046 18 42 18.8954 42 20V24C42 25.1046 41.1046 26 40 26H20C18.8954 26 18 25.1046 18 24V20C18 18.8954 18.8954 18 20 18Z" fill="white"/>
<path d="M20 28H40C41.1046 28 42 28.8954 42 30V34C42 35.1046 41.1046 36 40 36H20C18.8954 36 18 35.1046 18 34V30C18 28.8954 18.8954 28 20 28Z" fill="white" opacity="0.7"/>
<path d="M20 38H40C41.1046 38 42 38.8954 42 40V44C42 45.1046 41.1046 46 40 46H20C18.8954 46 18 45.1046 18 44V40C18 38.8954 18.8954 38 20 38Z" fill="white" opacity="0.5"/>
</svg>
