<svg width="60" height="60" viewBox="0 0 60 60" fill="none" xmlns="http://www.w3.org/2000/svg">
<g clip-path="url(#clip0_1371_2222)">
<rect width="60" height="60" rx="30" fill="#5282FF" style="fill:#5282FF;fill:color(display-p3 0.3208 0.5110 1.0000);fill-opacity:1;"/>
<path fill-rule="evenodd" clip-rule="evenodd" d="M35.625 40.2975C35.625 39.8719 35.7206 39.4725 35.8987 39.0975L32.4338 35.6213H30V36.8963C30 38.2725 28.89 39.3713 27.5231 39.3713H17.475C16.1081 39.3713 15 38.2725 15 36.8963V21.2231C15 19.8488 16.11 18.7481 17.4769 18.7481H27.525C28.8937 18.7481 30.0019 19.8488 30.0019 21.2231V22.4981H32.4356L35.8987 19.0238C35.6926 18.5953 35.5987 18.1215 35.6258 17.6468C35.6529 17.1721 35.8002 16.7121 36.0538 16.3099C36.3073 15.9077 36.6589 15.5765 37.0755 15.3474C37.4922 15.1183 37.9602 14.9987 38.4356 15C38.8579 14.9998 39.2748 15.0948 39.6554 15.2777C40.036 15.4607 40.3705 15.727 40.6341 16.057C40.8977 16.3869 41.0836 16.7719 41.178 17.1835C41.2725 17.5951 41.273 18.0227 41.1796 18.4345C41.0862 18.8464 40.9013 19.2319 40.6385 19.5625C40.3758 19.8931 40.042 20.1602 39.6618 20.3442C39.2817 20.5281 38.8651 20.6241 38.4428 20.625C38.0205 20.6259 37.6034 20.5317 37.2225 20.3494L33.4875 24.0994C33.3108 24.2741 33.0722 24.3718 32.8237 24.3713H30V28.1213H39.5287C39.915 27.0206 40.9575 26.2463 42.1838 26.2463C42.9297 26.2463 43.645 26.5426 44.1725 27.07C44.6999 27.5975 44.9963 28.3128 44.9963 29.0588C44.9963 29.8047 44.6999 30.5201 44.1725 31.0475C43.645 31.5749 42.9297 31.8713 42.1838 31.8713C40.9575 31.8713 39.915 31.095 39.5287 29.9963H30V33.7463H32.8237C33.0712 33.7463 33.3112 33.8456 33.4875 34.02L37.2244 37.77C37.6522 37.563 38.1256 37.468 38.6001 37.494C39.0747 37.5199 39.5349 37.666 39.9376 37.9184C40.3403 38.1708 40.6723 38.5213 40.9025 38.9371C41.1327 39.3529 41.2536 39.8204 41.2537 40.2956C41.2555 40.6664 41.1839 41.0338 41.0431 41.3768C40.9023 41.7198 40.6951 42.0316 40.4333 42.2942C40.1716 42.5568 39.8605 42.7651 39.518 42.907C39.1755 43.0489 38.8083 43.1218 38.4375 43.1213C38.0669 43.1218 37.6998 43.049 37.3574 42.9072C37.015 42.7654 36.7041 42.5573 36.4423 42.2949C36.1806 42.0324 35.9734 41.7209 35.8325 41.3781C35.6915 41.0354 35.6198 40.6681 35.6213 40.2975H35.625ZM28.125 32.8219V32.7975C28.122 32.5515 28.0225 32.3165 27.8478 32.1432C27.6731 31.9699 27.4373 31.8722 27.1912 31.8713H17.8088C17.5627 31.8722 17.3269 31.9699 17.1522 32.1432C16.9775 32.3165 16.878 32.5515 16.875 32.7975V32.8219C16.8784 33.0676 16.9782 33.3021 17.1528 33.475C17.3275 33.6479 17.563 33.7453 17.8088 33.7463H27.1912C27.437 33.7453 27.6725 33.6479 27.8472 33.475C28.0218 33.3021 28.1216 33.0676 28.125 32.8219ZM28.125 25.3219V25.2975C28.1216 25.0518 28.0218 24.8173 27.8472 24.6444C27.6725 24.4715 27.437 24.3741 27.1912 24.3731H17.8088C17.563 24.3741 17.3275 24.4715 17.1528 24.6444C16.9782 24.8173 16.8784 25.0518 16.875 25.2975V25.3238C16.8789 25.5691 16.9789 25.8032 17.1535 25.9757C17.3281 26.1482 17.5633 26.2453 17.8088 26.2463H27.1912C27.4367 26.2453 27.6719 26.1482 27.8465 25.9757C28.0211 25.8032 28.1211 25.5691 28.125 25.3238V25.3219Z" fill="white" style="fill:white;fill-opacity:1;"/>
</g>
<defs>
<clipPath id="clip0_1371_2222">
<rect width="60" height="60" fill="white" style="fill:white;fill-opacity:1;"/>
</clipPath>
</defs>
</svg>
