<svg width="60" height="60" viewBox="0 0 60 60" fill="none" xmlns="http://www.w3.org/2000/svg">
<g clip-path="url(#clip0_1367_2213)">
<rect width="60" height="60" rx="30" fill="#5282FF" style="fill:#5282FF;fill:color(display-p3 0.3208 0.5110 1.0000);fill-opacity:1;"/>
<path d="M29.02 38.95C28.1733 39.65 27.1217 40 25.865 40C25.2083 40 24.7417 39.9483 24.465 39.8467V37.415C24.5783 37.4433 24.7833 37.4767 25.0767 37.5133C25.37 37.55 25.6317 37.57 25.865 37.57C26.48 37.57 26.925 37.3967 27.2033 37.0533C27.48 36.71 27.6683 36.195 27.7733 35.5083L28.9983 28.3017H27.3767L27.8367 26.025H29.3933L29.655 24.4467C29.9033 22.8833 30.4517 21.7517 31.2967 21.0517C32.145 20.35 33.2183 20 34.5183 20C34.8267 20 35.0917 20.015 35.3167 20.0433C35.545 20.0733 35.715 20.1017 35.8317 20.1317V22.6067C35.7167 22.5633 35.5117 22.525 35.22 22.4983C34.9267 22.4683 34.6633 22.4533 34.43 22.4533C33.8167 22.4533 33.375 22.6183 33.1033 22.9467C32.8333 23.275 32.6417 23.7767 32.5233 24.4467L32.26 26.025H34.89L34.43 28.3017H31.8667L30.6617 35.5533C30.4167 37.1167 29.865 38.2483 29.02 38.95ZM23.8117 44.9667C24.125 44.9417 24.47 44.895 24.8517 44.8267L24.9867 44.8033V42.65L24.79 42.6883C24.1367 42.8183 23.5783 42.8833 23.1367 42.8833C22.0717 42.8833 21.3367 42.6333 20.95 42.1417C20.5567 41.63 20.3583 40.9833 20.3583 40.21C20.3583 39.705 20.395 39.2267 20.4833 38.72L20.935 36.13C21.0133 35.6717 21.0517 35.145 21.0517 34.5683C21.0517 34.095 21.0067 33.6317 20.9167 33.1967C20.8217 32.7483 20.6433 32.32 20.38 31.9183C20.1183 31.5217 19.7617 31.14 19.32 30.7917C18.9633 30.5083 18.515 30.2483 17.98 30.0133C18.5067 29.785 18.9617 29.5217 19.335 29.2333C19.7867 28.88 20.145 28.4883 20.4 28.0633C20.6483 27.6483 20.8217 27.2017 20.9167 26.7383C21.0067 26.29 21.0517 25.8233 21.0517 25.35C21.0517 24.7917 21.0133 24.275 20.935 23.815L20.4717 21.1883C20.395 20.7467 20.3583 20.2783 20.3583 19.7917C20.3583 18.9783 20.5617 18.3167 20.9633 17.8283C21.36 17.3533 22.1033 17.1117 23.17 17.1117C23.4067 17.1117 23.66 17.1267 23.93 17.16C24.2017 17.1933 24.9883 17.3 24.9883 17.3V15.1833L23.8167 15.0483C23.4983 15.0167 23.1833 15 22.8717 15C21.1317 15 19.84 15.4417 19.03 16.3083C18.22 17.175 17.8117 18.3267 17.8117 19.7283C17.8117 20.28 17.8567 20.785 17.945 21.2333C18.0333 21.685 18.1267 22.1333 18.2267 22.5767C18.3267 23.0167 18.42 23.4667 18.5083 23.93C18.5967 24.385 18.6383 24.8867 18.6383 25.4217C18.6383 25.865 18.5967 26.2933 18.51 26.6917C18.425 27.0783 18.2633 27.415 18.0133 27.7133C17.7667 28.0133 17.4133 28.27 16.9617 28.48C16.5133 28.69 15.9033 28.83 15.1483 28.895L15 28.9067V31.095L15.1517 31.1067C15.9433 31.1717 16.5733 31.3217 17.025 31.5533C17.4767 31.785 17.8233 32.065 18.06 32.38C18.2967 32.7 18.4517 33.0733 18.525 33.4833C18.6017 33.9233 18.6383 34.3817 18.6383 34.845C18.6383 35.3583 18.5967 35.8367 18.51 36.2683C18.42 36.705 18.3267 37.14 18.2267 37.57C18.1267 38.0033 18.0333 38.4383 17.9467 38.88C17.855 39.3267 17.8117 39.8017 17.8117 40.3333C17.8117 41.72 18.2133 42.8533 19.0117 43.705C19.8117 44.5617 21.1117 44.9967 22.8717 44.9967C23.1817 45 23.495 44.9883 23.8117 44.9667ZM37.1267 45C38.8883 45 40.1867 44.5633 40.9867 43.7083C41.785 42.855 42.1867 41.7233 42.1867 40.3367C42.1867 39.805 42.1433 39.33 42.0517 38.8833C41.965 38.4417 41.8717 38.0067 41.7717 37.5733C41.6717 37.1433 41.5783 36.7067 41.4883 36.2717C41.4017 35.8383 41.36 35.36 41.36 34.8483C41.36 34.385 41.3967 33.925 41.4733 33.4867C41.5467 33.0767 41.7033 32.7033 41.9383 32.3833C42.175 32.0683 42.5233 31.7883 42.9733 31.5567C43.425 31.325 44.055 31.175 44.8467 31.11L45 31.095V28.9067L44.85 28.8933C44.095 28.8283 43.485 28.6883 43.0367 28.4783C42.585 28.2683 42.2333 28.0117 41.985 27.7117C41.7367 27.4117 41.5733 27.0767 41.4883 26.69C41.4017 26.2933 41.36 25.8633 41.36 25.42C41.36 24.8867 41.4017 24.385 41.49 23.9283C41.5783 23.4667 41.6717 23.015 41.7717 22.575C41.8717 22.1317 41.965 21.685 42.0533 21.2317C42.1417 20.7817 42.1867 20.2783 42.1867 19.7267C42.1867 18.325 41.7783 17.1733 40.9683 16.3067C40.1583 15.4417 38.8667 15 37.1267 15C36.815 15 36.5 15.0167 36.1833 15.0483L35.0117 15.1833V17.3033C35.0117 17.3033 35.7983 17.1967 36.07 17.1633C36.34 17.1283 36.5933 17.115 36.83 17.115C37.8983 17.115 38.64 17.3567 39.0367 17.8317C39.4383 18.32 39.6417 18.98 39.6417 19.795C39.6417 20.2817 39.605 20.75 39.5283 21.1917L39.065 23.8183C38.9867 24.2783 38.9483 24.795 38.9483 25.3533C38.9483 25.8267 38.9933 26.2933 39.0833 26.7417C39.1783 27.205 39.35 27.6517 39.6 28.0667C39.8533 28.4917 40.2117 28.8833 40.665 29.2367C41.04 29.525 41.4933 29.7883 42.02 30.0167C41.4867 30.2517 41.0367 30.5117 40.68 30.795C40.2383 31.1433 39.8817 31.525 39.62 31.9217C39.3567 32.3217 39.1767 32.7517 39.0833 33.2C38.9933 33.6367 38.9483 34.0983 38.9483 34.5717C38.9483 35.1483 38.9867 35.6733 39.065 36.1333L39.5167 38.7233C39.605 39.23 39.6417 39.7083 39.6417 40.2133C39.6417 40.9867 39.4433 41.635 39.05 42.145C38.6633 42.6367 37.9267 42.8867 36.8633 42.8867C36.42 42.8867 35.8617 42.8217 35.21 42.6917L35.0133 42.6533V44.8083L35.1483 44.8317C35.53 44.9 35.8767 44.9467 36.1883 44.9717C36.5033 44.9883 36.8167 45 37.1267 45Z" fill="white" style="fill:white;fill-opacity:1;"/>
</g>
<defs>
<clipPath id="clip0_1367_2213">
<rect width="60" height="60" fill="white" style="fill:white;fill-opacity:1;"/>
</clipPath>
</defs>
</svg>
