<svg width="60" height="60" viewBox="0 0 60 60" fill="none" xmlns="http://www.w3.org/2000/svg">
<g clip-path="url(#clip0_1395_2229)">
<rect width="60" height="60" rx="30" fill="#5282FF" style="fill:#5282FF;fill:color(display-p3 0.3208 0.5110 1.0000);fill-opacity:1;"/>
<path d="M34.6875 15C40.3829 15 45 19.6171 45 25.3125C45 30.7061 40.859 35.129 35.583 35.583C35.129 40.859 30.7061 45 25.3125 45C19.6171 45 15 40.3829 15 34.6875C15 29.2942 19.1405 24.8704 24.416 24.416C24.8704 19.1405 29.2942 15 34.6875 15ZM19.6201 39.9736H21.5127L22.6494 36.9844H27.3271L28.4639 39.9736H30.3564L25.7314 28.7363H24.2441L19.6201 39.9736ZM26.7109 35.4551H23.2656L24.9883 31.0537L26.7109 35.4551ZM32.209 18.7461C32.1848 19.0162 32.144 19.5805 32.1494 20.3701C32.1064 20.3707 32.0657 20.3724 32.0215 20.373C30.7832 20.3761 29.632 20.2797 29.3604 20.2549V21.6543C29.7668 21.69 30.7493 21.7656 31.8672 21.7656C31.921 21.7656 31.9766 21.7646 32.0322 21.7646C32.0908 21.764 32.1455 21.7623 32.2041 21.7617C32.2586 22.5561 32.3635 23.4659 32.5469 24.459C30.7125 25.558 29.2564 27.6912 29.998 29.4258C30.3099 30.1537 30.9105 30.6212 31.6914 30.7402C31.8222 30.7608 31.9574 30.7695 32.0967 30.7695C32.8861 30.7695 33.7918 30.447 34.6562 29.8984C35.2223 30.7473 35.6786 31.1938 35.7197 31.2324L36.6689 30.2217C36.659 30.2124 36.2583 29.8191 35.7539 29.0479C35.9797 28.8389 36.1999 28.6191 36.4033 28.3799C37.3216 27.2991 37.8931 26.1761 38.249 25.1738C38.5607 25.355 38.868 25.6278 39.0303 26.0342C39.583 27.4159 38.7845 29.0154 38.041 29.709L38.9785 30.7305C40.2154 29.5765 41.0713 27.4138 40.3115 25.5137C40.0125 24.7664 39.4351 24.1812 38.6318 23.8066C38.7637 23.1683 38.8074 22.6504 38.8213 22.3115H37.4395C37.4261 22.5688 37.3908 22.9501 37.2988 23.4199C36.2207 23.2635 35.0058 23.4157 33.8418 23.8457C33.7117 23.0702 33.6317 22.3514 33.5869 21.7129C37.7295 21.4725 40.1748 20.4662 40.29 20.417L39.7588 19.1328C39.7334 19.1437 37.4178 20.0883 33.5322 20.3203C33.5274 19.363 33.5919 18.7797 33.5957 18.7461H32.209ZM32.8721 25.9023C33.1742 27.0091 33.5606 27.946 33.9541 28.7061C33.2165 29.1866 32.4619 29.448 31.8984 29.3643C31.5854 29.3159 31.3897 29.1646 31.2656 28.874C30.9242 28.0747 31.6649 26.7717 32.8721 25.9023ZM36.4297 24.7471C36.5973 24.7471 36.7619 24.7559 36.9229 24.7734C36.6147 25.6192 36.1269 26.5655 35.3545 27.4746C35.2577 27.5881 35.1543 27.6945 35.0508 27.8008C34.7076 27.097 34.3755 26.2409 34.123 25.2285C34.8956 24.9144 35.6917 24.7471 36.4297 24.7471Z" fill="white" style="fill:white;fill-opacity:1;"/>
</g>
<defs>
<clipPath id="clip0_1395_2229">
<rect width="60" height="60" fill="white" style="fill:white;fill-opacity:1;"/>
</clipPath>
</defs>
</svg>
