<svg width="60" height="60" viewBox="0 0 60 60" fill="none" xmlns="http://www.w3.org/2000/svg">
<g clip-path="url(#clip0_1414_2309)">
<rect width="60" height="60" rx="30" fill="#5282FF" style="fill:#5282FF;fill:color(display-p3 0.3208 0.5110 1.0000);fill-opacity:1;"/>
<path d="M44.4567 28.6744L37.8998 22.0612C35.8805 20.0156 33.0867 18.75 30.0005 18.75C26.9142 18.75 24.1205 20.0156 22.1011 22.0612L15.5442 28.6744C14.8186 29.4075 14.8186 30.5925 15.5442 31.3256L22.1161 37.9556C24.1336 39.99 26.9217 41.25 30.0005 41.25C33.0792 41.25 35.8673 39.99 37.8848 37.9556L44.4567 31.3256C45.1823 30.5925 45.1823 29.4075 44.4567 28.6744ZM30.0005 37.5C25.8642 37.5 22.5005 34.1363 22.5005 30C22.5005 25.8637 25.8642 22.5 30.0005 22.5C34.1367 22.5 37.5005 25.8637 37.5005 30C37.5005 34.1363 34.1367 37.5 30.0005 37.5ZM33.7505 30.0019L30.0005 33.7519L26.2505 30.0019L30.0005 26.2519L33.7505 30.0019Z" fill="white" style="fill:white;fill-opacity:1;"/>
</g>
<defs>
<clipPath id="clip0_1414_2309">
<rect width="60" height="60" fill="white" style="fill:white;fill-opacity:1;"/>
</clipPath>
</defs>
</svg>
