<svg width="60" height="60" viewBox="0 0 60 60" fill="none" xmlns="http://www.w3.org/2000/svg">
<g clip-path="url(#clip0_1368_2223)">
<rect width="60" height="60" rx="30" fill="#5282FF" style="fill:#5282FF;fill:color(display-p3 0.3208 0.5110 1.0000);fill-opacity:1;"/>
<path d="M43.125 30C44.25 30 45 30.75 45 31.875V43.125C45 44.25 44.25 45 43.125 45H26.25C25.125 45 24.375 44.25 24.375 43.125V31.875C24.375 30.9375 25.125 30 26.25 30H43.125ZM39.375 22.5C40.5 22.5 41.25 23.25 41.25 24.375V28.125H26.25C24.1875 28.125 22.5 29.8125 22.5 31.875V37.5C21.375 37.5 20.625 36.75 20.625 35.625V24.375C20.625 23.25 21.375 22.5 22.5 22.5H39.375ZM35.625 15C36.75 15 37.5 15.75 37.5 16.875V20.625H22.5C20.4375 20.625 18.75 22.3125 18.75 24.375V30C17.625 30 16.875 29.25 16.875 28.125V16.875C16.875 15.75 17.625 15 18.75 15H35.625Z" fill="white" style="fill:white;fill-opacity:1;"/>
</g>
<defs>
<clipPath id="clip0_1368_2223">
<rect width="60" height="60" fill="white" style="fill:white;fill-opacity:1;"/>
</clipPath>
</defs>
</svg>
